<svg width="40" height="45" viewBox="0 0 40 45" fill="none" xmlns="http://www.w3.org/2000/svg">
<path d="M19.6745 45C8.82908 45 0.000406218 35.9954 0.000406218 24.925C-0.0192157 21.8404 0.672273 18.7925 2.02149 16.0182C3.37104 13.2443 5.34152 10.8185 7.78008 8.92933C8.36364 8.47585 9.10563 8.27745 9.83743 8.37955C10.5693 8.48166 11.2288 8.87518 11.6659 9.47106C12.111 10.0713 12.3043 10.8214 12.2047 11.5619C12.1052 12.3024 11.7204 12.9747 11.1328 13.4361C7.58315 16.1868 5.51816 20.4345 5.54681 24.9252C5.54681 32.8549 11.886 39.3435 19.6749 39.3435C27.4633 39.3435 33.803 32.8764 33.803 24.9252C33.8285 20.4322 31.7584 16.1844 28.204 13.4361C27.6161 12.9746 27.2316 12.3024 27.1321 11.5619C27.0325 10.8214 27.2258 10.0714 27.671 9.47106C28.1081 8.87151 28.7701 8.47471 29.5053 8.37257C30.2403 8.27046 30.9856 8.47141 31.5695 8.92925C34.0084 10.8184 35.9789 13.2442 37.3281 16.0181C38.6776 18.7924 39.3691 21.8404 39.3494 24.925C39.3494 35.9954 30.5202 45 19.6745 45Z"/>
<path d="M19.6745 26.8943C18.9041 26.859 18.1789 26.5189 17.6592 25.9488C17.1396 25.3787 16.8678 24.6254 16.9038 23.8547V3.97323C16.8715 3.20472 17.1447 2.45512 17.6643 1.88788C18.1836 1.32066 18.9064 0.982367 19.6744 0.946777C20.4429 0.982387 21.1657 1.32068 21.6849 1.88788C22.2042 2.45508 22.4778 3.20469 22.4454 3.97323V23.8547C22.4814 24.6254 22.2096 25.3787 21.69 25.9488C21.17 26.5189 20.4451 26.8591 19.6745 26.8943Z"/>
</svg>
